<svg width="437" height="173" viewBox="0 0 437 173" fill="none" xmlns="http://www.w3.org/2000/svg">
<g clip-path="url(#clip0_6_6088)">
<path d="M19.9941 25.1728C20.7453 25.1728 21.4139 25.0376 22.0149 24.7821L23.0367 26.1795C23.1493 26.3372 23.2771 26.4124 23.4499 26.4124C23.7128 26.4124 23.9156 26.2246 23.9156 25.9616C23.9156 25.8264 23.8856 25.7588 23.7954 25.6311L22.8488 24.3314C24.1711 23.3923 24.9223 21.732 24.9223 19.5834C24.9223 16.1501 23.0141 13.9865 19.9941 13.9865C16.974 13.9865 15.0733 16.1501 15.0733 19.5834C15.0733 23.0167 16.9665 25.1728 19.9941 25.1728ZM19.9941 24.2187C17.6276 24.2187 16.1251 22.4232 16.1251 19.5834C16.1251 16.7361 17.6201 14.9406 19.9941 14.9406C22.368 14.9406 23.863 16.7361 23.863 19.5834C23.863 21.3489 23.2846 22.7312 22.2478 23.505L21.2411 22.1152C21.1134 21.9499 21.0083 21.8823 20.8204 21.8823C20.55 21.8823 20.3547 22.0701 20.3547 22.3255C20.3547 22.4382 20.3847 22.5434 20.4749 22.6636L21.4214 23.9633C20.9932 24.1285 20.5124 24.2187 19.9941 24.2187Z" fill="white"/>
</g>
<rect x="0.75" y="0.75" width="38.5031" height="38.5031" rx="5.40433" stroke="white" stroke-opacity="0.25" stroke-width="1.5"/>
<g clip-path="url(#clip1_6_6088)">
<path d="M60.8269 25.1052C61.1349 25.1052 61.3002 24.9699 61.4053 24.6319L63.9746 15.9173H64.0347L66.6041 24.6319C66.7017 24.9699 66.867 25.1052 67.1825 25.1052C67.483 25.1052 67.6483 24.9549 67.746 24.6319L70.5106 14.8279C70.5482 14.6927 70.5632 14.6101 70.5632 14.5199C70.5632 14.2495 70.3528 14.0541 70.0523 14.0541C69.7894 14.0541 69.6166 14.1894 69.549 14.4673L67.1825 23.4224H67.1299L64.6132 14.58C64.5156 14.2119 64.3352 14.0541 64.0047 14.0541C63.6741 14.0541 63.4938 14.2119 63.3887 14.6026L60.8719 23.4224H60.8269L58.4604 14.4673C58.3928 14.1969 58.22 14.0541 57.9495 14.0541C57.6565 14.0541 57.4462 14.2419 57.4462 14.5199C57.4462 14.6101 57.4537 14.6852 57.4913 14.8054L60.2634 24.6319C60.3611 24.9549 60.5264 25.1052 60.8269 25.1052Z" fill="white"/>
</g>
<rect x="44.7531" y="0.75" width="38.5031" height="38.5031" rx="5.40433" stroke="white" stroke-opacity="0.25" stroke-width="1.5"/>
<g clip-path="url(#clip2_6_6088)">
<path d="M105.386 25H111.028C111.321 25 111.524 24.8122 111.524 24.5342C111.524 24.2638 111.321 24.0684 111.028 24.0684H105.897V19.9065H110.757C111.05 19.9065 111.246 19.7186 111.246 19.4482C111.246 19.1777 111.05 18.9899 110.757 18.9899H105.897V15.0909H111.028C111.321 15.0909 111.524 14.8955 111.524 14.6251C111.524 14.3471 111.321 14.1593 111.028 14.1593H105.386C105.07 14.1593 104.875 14.3621 104.875 14.6927V24.4666C104.875 24.7972 105.07 25 105.386 25Z" fill="white"/>
</g>
<rect x="88.7563" y="0.75" width="38.5031" height="38.5031" rx="5.40433" stroke="white" stroke-opacity="0.25" stroke-width="1.5"/>
<g clip-path="url(#clip3_6_6088)">
<path d="M149.051 25.1277C149.359 25.1277 149.562 24.9174 149.562 24.5943V20.56H152.281C152.334 20.56 152.409 20.56 152.447 20.56L154.843 24.7972C154.971 25.0376 155.106 25.1277 155.339 25.1277C155.64 25.1277 155.865 24.9249 155.865 24.6544C155.865 24.5342 155.827 24.429 155.752 24.2863L153.513 20.3948C154.963 20.0191 155.835 18.8622 155.835 17.3296C155.835 15.3989 154.483 14.1593 152.364 14.1593H149.051C148.735 14.1593 148.54 14.3697 148.54 14.6927V24.5943C148.54 24.9174 148.743 25.1277 149.051 25.1277ZM149.562 19.651V15.0758H152.244C153.821 15.0758 154.776 15.9248 154.776 17.3597C154.776 18.8096 153.859 19.651 152.281 19.651H149.562Z" fill="white"/>
</g>
<rect x="132.759" y="0.75" width="38.5031" height="38.5031" rx="5.40433" stroke="white" stroke-opacity="0.25" stroke-width="1.5"/>
<g clip-path="url(#clip4_6_6088)">
<path d="M196.014 25.1052C196.322 25.1052 196.525 24.9023 196.525 24.5718V15.0909H199.688C199.988 15.0909 200.184 14.8955 200.184 14.6251C200.184 14.3471 199.988 14.1593 199.688 14.1593H192.333C192.04 14.1593 191.837 14.3471 191.837 14.6251C191.837 14.8955 192.04 15.0909 192.333 15.0909H195.496V24.5718C195.496 24.9023 195.699 25.1052 196.014 25.1052Z" fill="white"/>
</g>
<rect x="176.763" y="0.75" width="38.5031" height="38.5031" rx="5.40433" stroke="white" stroke-opacity="0.25" stroke-width="1.5"/>
<g clip-path="url(#clip5_6_6088)">
<path d="M240.017 25.1052C240.325 25.1052 240.528 24.9023 240.528 24.5718V20.3121L244.149 14.8505C244.232 14.7228 244.262 14.6251 244.262 14.5049C244.262 14.2495 244.044 14.0541 243.766 14.0541C243.556 14.0541 243.435 14.1293 243.308 14.3246L240.032 19.3054H239.995L236.719 14.3246C236.591 14.1293 236.471 14.0541 236.261 14.0541C235.983 14.0541 235.765 14.2495 235.765 14.5049C235.765 14.6251 235.788 14.7228 235.87 14.8505L239.499 20.3121V24.5718C239.499 24.9023 239.702 25.1052 240.017 25.1052Z" fill="white"/>
</g>
<rect x="220.766" y="0.75" width="38.5031" height="38.5031" rx="5.40433" stroke="white" stroke-opacity="0.25" stroke-width="1.5"/>
<g clip-path="url(#clip6_6_6088)">
<path d="M284.02 25.1728C286.627 25.1728 288.22 23.5501 288.22 21.2136V14.5875C288.22 14.257 288.017 14.0541 287.702 14.0541C287.393 14.0541 287.191 14.257 287.191 14.5875V21.1535C287.191 22.9716 286.011 24.2187 284.02 24.2187C282.037 24.2187 280.85 22.9716 280.85 21.1535V14.5875C280.85 14.257 280.655 14.0541 280.339 14.0541C280.024 14.0541 279.828 14.257 279.828 14.5875V21.2136C279.828 23.5501 281.413 25.1728 284.02 25.1728Z" fill="white"/>
</g>
<rect x="264.769" y="0.75" width="38.5031" height="38.5031" rx="5.40433" stroke="white" stroke-opacity="0.25" stroke-width="1.5"/>
<g clip-path="url(#clip7_6_6088)">
<path d="M328.023 25.1052C328.339 25.1052 328.534 24.9023 328.534 24.5718V14.5875C328.534 14.257 328.339 14.0541 328.023 14.0541C327.708 14.0541 327.513 14.257 327.513 14.5875V24.5718C327.513 24.9023 327.708 25.1052 328.023 25.1052Z" fill="white"/>
</g>
<rect x="308.772" y="0.75" width="38.5031" height="38.5031" rx="5.40433" stroke="white" stroke-opacity="0.25" stroke-width="1.5"/>
<g clip-path="url(#clip8_6_6088)">
<path d="M372.019 25.1728C375.047 25.1728 376.947 23.0167 376.947 19.5834C376.947 16.1501 375.039 13.9865 372.019 13.9865C368.999 13.9865 367.098 16.1501 367.098 19.5834C367.098 23.0167 368.999 25.1728 372.019 25.1728ZM372.019 24.2187C369.645 24.2187 368.15 22.4232 368.15 19.5834C368.15 16.7361 369.645 14.9406 372.019 14.9406C374.393 14.9406 375.896 16.7361 375.896 19.5834C375.896 22.4232 374.393 24.2187 372.019 24.2187Z" fill="white"/>
</g>
<rect x="352.775" y="0.75" width="38.5031" height="38.5031" rx="5.40433" stroke="white" stroke-opacity="0.25" stroke-width="1.5"/>
<g clip-path="url(#clip9_6_6088)">
<path d="M413.235 25.1052C413.551 25.1052 413.746 24.9023 413.746 24.5718V20.9131H416.405C418.471 20.9131 419.891 19.5458 419.891 17.5325C419.891 15.5191 418.486 14.1593 416.413 14.1593H413.235C412.919 14.1593 412.724 14.3621 412.724 14.6927V24.5718C412.724 24.9023 412.919 25.1052 413.235 25.1052ZM413.746 19.9966V15.0758H416.172C417.848 15.0758 418.839 15.9924 418.839 17.5325C418.839 19.0726 417.84 19.9966 416.172 19.9966H413.746Z" fill="white"/>
</g>
<rect x="396.778" y="0.75" width="38.5031" height="38.5031" rx="5.40433" stroke="white" stroke-opacity="0.25" stroke-width="1.5"/>
<g clip-path="url(#clip10_6_6088)">
<path d="M38.1191 69.1083C38.3745 69.1083 38.5248 68.9956 38.6225 68.7101L39.7343 65.6826H44.2644L45.3763 68.7101C45.4815 68.9881 45.6242 69.1083 45.8872 69.1083C46.1877 69.1083 46.4055 68.9205 46.4055 68.6575C46.4055 68.5749 46.383 68.4848 46.3379 68.357L42.6492 58.5456C42.5215 58.2075 42.3262 58.0573 42.0106 58.0573C41.6801 58.0573 41.4773 58.215 41.3495 58.5456L37.6684 68.357C37.6158 68.4923 37.6007 68.5824 37.6007 68.6575C37.6007 68.9205 37.8186 69.1083 38.1191 69.1083ZM40.0348 64.7961L41.9806 59.4321H42.0257L43.9639 64.7961H40.0348Z" fill="white"/>
</g>
<rect x="22.7516" y="44.7531" width="38.5031" height="38.5031" rx="5.40433" stroke="white" stroke-opacity="0.25" stroke-width="1.5"/>
<g clip-path="url(#clip11_6_6088)">
<path d="M86.0664 69.1759C88.4103 69.1759 89.9579 67.9363 89.9579 66.0131C89.9579 64.5031 89.0639 63.6617 86.8402 63.1583L85.6607 62.8879C84.053 62.5273 83.3844 61.9037 83.3844 60.9196C83.3844 59.6875 84.5413 58.9212 86.0063 58.9212C87.366 58.9212 88.4028 59.5598 88.7108 60.7167C88.7934 60.9872 88.9512 61.1299 89.2217 61.1299C89.4996 61.1299 89.6874 60.9421 89.6874 60.6566C89.6874 60.5289 89.6799 60.4237 89.6574 60.3336C89.2893 58.9062 87.8318 57.9896 86.0363 57.9896C83.9102 57.9896 82.3326 59.2142 82.3326 60.9646C82.3326 62.4596 83.2341 63.3837 85.3827 63.8645L86.5622 64.1274C88.23 64.5106 88.9061 65.1266 88.9061 66.1483C88.9061 67.3804 87.7492 68.2444 86.119 68.2444C84.5638 68.2444 83.3769 67.5532 83.0989 66.3061C83.0313 66.0206 82.866 65.8854 82.6031 65.8854C82.3101 65.8854 82.1298 66.0957 82.1298 66.4263C82.1298 66.5615 82.1523 66.6968 82.1974 66.8395C82.5655 68.2068 84.0229 69.1759 86.0664 69.1759Z" fill="white"/>
</g>
<rect x="66.7547" y="44.7531" width="38.5031" height="38.5031" rx="5.40433" stroke="white" stroke-opacity="0.25" stroke-width="1.5"/>
<g clip-path="url(#clip12_6_6088)">
<path d="M126.411 69.0031H129.416C132.669 69.0031 134.555 67.0123 134.555 63.579C134.555 60.1533 132.661 58.1624 129.416 58.1624H126.411C126.095 58.1624 125.9 58.3653 125.9 58.6958V68.4697C125.9 68.8003 126.095 69.0031 126.411 69.0031ZM126.929 68.0716V59.094H129.356C132.023 59.094 133.51 60.7017 133.51 63.5865C133.51 66.4639 132.023 68.0716 129.356 68.0716H126.929Z" fill="white"/>
</g>
<rect x="110.758" y="44.7531" width="38.5031" height="38.5031" rx="5.40433" stroke="white" stroke-opacity="0.25" stroke-width="1.5"/>
<g clip-path="url(#clip13_6_6088)">
<rect x="155.55" y="45.5417" width="36.926" height="36.926" rx="6.15433" fill="#1782FF"/>
<path d="M171.548 69.6469C171.864 69.6469 172.059 69.444 172.059 69.1135V64.621H176.642C176.935 64.621 177.13 64.4331 177.13 64.1627C177.13 63.8847 176.935 63.7044 176.642 63.7044H172.059V59.6326H177.07C177.371 59.6326 177.566 59.4373 177.566 59.1668C177.566 58.8888 177.371 58.701 177.07 58.701H171.548C171.233 58.701 171.038 58.9039 171.038 59.2344V69.1135C171.038 69.444 171.233 69.6469 171.548 69.6469Z" fill="white"/>
</g>
<rect x="156.127" y="46.1187" width="35.772" height="35.772" rx="5.57736" stroke="white" stroke-opacity="0.25" stroke-width="1.15394"/>
<g clip-path="url(#clip14_6_6088)">
<path d="M218.166 69.1759C220.983 69.1759 222.666 67.463 222.666 64.6007V64.0899C222.666 63.7593 222.471 63.5565 222.155 63.5565H218.669C218.376 63.5565 218.173 63.7368 218.173 64.0072C218.173 64.2777 218.376 64.458 218.669 64.458H221.644V64.8411C221.644 66.8846 220.262 68.2218 218.166 68.2218C215.845 68.2218 214.349 66.3812 214.349 63.5189C214.349 60.6942 215.814 58.9437 218.166 58.9437C219.706 58.9437 220.908 59.7476 221.434 61.1449C221.554 61.453 221.712 61.5807 221.967 61.5807C222.253 61.5807 222.433 61.3929 222.433 61.1074C222.433 60.9646 222.411 60.8144 222.335 60.6115C221.764 59.0414 220.149 57.9896 218.166 57.9896C215.206 57.9896 213.298 60.1608 213.298 63.5189C213.298 66.9372 215.228 69.1759 218.166 69.1759Z" fill="white"/>
</g>
<rect x="198.764" y="44.7531" width="38.5031" height="38.5031" rx="5.40433" stroke="white" stroke-opacity="0.25" stroke-width="1.5"/>
<g clip-path="url(#clip15_6_6088)">
<path d="M258.33 69.1083C258.646 69.1083 258.841 68.9055 258.841 68.5749V63.9171H265.182V68.5749C265.182 68.9055 265.384 69.1083 265.7 69.1083C266.008 69.1083 266.211 68.9055 266.211 68.5749V58.5907C266.211 58.2601 266.008 58.0573 265.7 58.0573C265.384 58.0573 265.182 58.2601 265.182 58.5907V62.9855H258.841V58.5907C258.841 58.2601 258.646 58.0573 258.33 58.0573C258.015 58.0573 257.819 58.2601 257.819 58.5907V68.5749C257.819 68.9055 258.015 69.1083 258.33 69.1083Z" fill="white"/>
</g>
<rect x="242.767" y="44.7531" width="38.5031" height="38.5031" rx="5.40433" stroke="white" stroke-opacity="0.25" stroke-width="1.5"/>
<g clip-path="url(#clip16_6_6088)">
<path d="M305.609 69.1759C307.554 69.1759 308.711 67.9739 308.711 65.9831V58.5907C308.711 58.2601 308.516 58.0573 308.201 58.0573C307.885 58.0573 307.69 58.2601 307.69 58.5907V65.968C307.69 67.418 306.931 68.2218 305.609 68.2218C304.587 68.2218 303.836 67.6208 303.625 66.5841C303.543 66.2535 303.385 66.1108 303.115 66.1108C302.814 66.1108 302.626 66.3061 302.626 66.6442C302.626 66.862 302.671 67.0273 302.731 67.2302C303.069 68.4021 304.204 69.1759 305.609 69.1759Z" fill="white"/>
</g>
<rect x="286.77" y="44.7531" width="38.5031" height="38.5031" rx="5.40433" stroke="white" stroke-opacity="0.25" stroke-width="1.5"/>
<g clip-path="url(#clip17_6_6088)">
<path d="M347.005 69.1083C347.321 69.1083 347.516 68.9055 347.516 68.5749V65.1341L348.883 63.6842L353.158 68.8529C353.316 69.0407 353.443 69.1158 353.631 69.1158C353.917 69.1158 354.127 68.898 354.127 68.6275C354.127 68.4923 354.074 68.3646 353.969 68.2368L349.597 62.9555L353.518 58.8461C353.609 58.7484 353.661 58.6357 353.661 58.5155C353.661 58.2526 353.466 58.0497 353.188 58.0497C353.023 58.0497 352.91 58.1098 352.775 58.2601L347.576 63.7819H347.516V58.5907C347.516 58.2601 347.321 58.0573 347.005 58.0573C346.689 58.0573 346.494 58.2601 346.494 58.5907V68.5749C346.494 68.9055 346.689 69.1083 347.005 69.1083Z" fill="white"/>
</g>
<rect x="330.773" y="44.7531" width="38.5031" height="38.5031" rx="5.40433" stroke="white" stroke-opacity="0.25" stroke-width="1.5"/>
<g clip-path="url(#clip18_6_6088)">
<path d="M391.602 69.0031H397.146C397.446 69.0031 397.642 68.8153 397.642 68.5373C397.642 68.2669 397.446 68.0716 397.146 68.0716H392.112V58.5907C392.112 58.2601 391.917 58.0573 391.602 58.0573C391.286 58.0573 391.091 58.2601 391.091 58.5907V68.4697C391.091 68.8003 391.286 69.0031 391.602 69.0031Z" fill="white"/>
</g>
<rect x="374.777" y="44.7531" width="38.5031" height="38.5031" rx="5.40433" stroke="white" stroke-opacity="0.25" stroke-width="1.5"/>
<g clip-path="url(#clip19_6_6088)">
<path d="M82.6181 113.006H89.5597C89.8602 113.006 90.0555 112.818 90.0555 112.54C90.0555 112.27 89.8602 112.075 89.5597 112.075H83.3768V112.03L89.6724 103.187C89.8227 102.977 89.8677 102.872 89.8677 102.699C89.8677 102.383 89.6424 102.166 89.2968 102.166H82.6631C82.3701 102.166 82.1673 102.353 82.1673 102.631C82.1673 102.902 82.3701 103.097 82.6631 103.097H88.568V103.142L82.2499 111.992C82.1147 112.18 82.0621 112.308 82.0621 112.473C82.0621 112.796 82.28 113.006 82.6181 113.006Z" fill="white"/>
</g>
<rect x="66.7547" y="88.7563" width="38.5031" height="38.5031" rx="5.40433" stroke="white" stroke-opacity="0.25" stroke-width="1.5"/>
<g clip-path="url(#clip20_6_6088)">
<path d="M126.343 113.111C126.531 113.111 126.629 113.044 126.786 112.833L129.949 108.424H129.987L133.135 112.848C133.262 113.036 133.383 113.111 133.578 113.111C133.863 113.111 134.096 112.901 134.096 112.638C134.096 112.525 134.059 112.405 133.984 112.308L130.618 107.62V107.59L134.051 102.842C134.141 102.721 134.171 102.616 134.171 102.504C134.171 102.256 133.953 102.06 133.676 102.06C133.48 102.06 133.375 102.136 133.232 102.338L130.062 106.771H130.024L126.884 102.361C126.726 102.128 126.621 102.06 126.418 102.06C126.125 102.06 125.892 102.271 125.892 102.534C125.892 102.654 125.923 102.759 126.013 102.887L129.363 107.545V107.582L125.96 112.33C125.877 112.45 125.84 112.555 125.84 112.668C125.84 112.916 126.058 113.111 126.343 113.111Z" fill="white"/>
</g>
<rect x="110.758" y="88.7563" width="38.5031" height="38.5031" rx="5.40433" stroke="white" stroke-opacity="0.25" stroke-width="1.5"/>
<g clip-path="url(#clip21_6_6088)">
<path d="M174.268 113.179C176.296 113.179 177.799 112.217 178.385 110.655C178.475 110.452 178.513 110.279 178.513 110.099C178.513 109.821 178.325 109.626 178.047 109.626C177.814 109.626 177.671 109.746 177.566 110.001C177.16 111.429 175.876 112.225 174.275 112.225C171.969 112.225 170.489 110.414 170.489 107.56C170.489 104.742 171.969 102.947 174.268 102.947C175.801 102.947 177.123 103.871 177.543 105.328C177.656 105.629 177.836 105.764 178.084 105.764C178.37 105.764 178.55 105.576 178.55 105.291C178.55 105.163 178.52 104.998 178.46 104.833C177.919 103.15 176.266 101.993 174.268 101.993C171.323 101.993 169.437 104.164 169.437 107.56C169.437 110.993 171.315 113.179 174.268 113.179Z" fill="white"/>
</g>
<rect x="154.761" y="88.7563" width="38.5031" height="38.5031" rx="5.40433" stroke="white" stroke-opacity="0.25" stroke-width="1.5"/>
<g clip-path="url(#clip22_6_6088)">
<path d="M218.016 113.111C218.339 113.111 218.511 112.991 218.639 112.653L222.441 102.797C222.478 102.691 222.501 102.586 222.501 102.504C222.501 102.248 222.283 102.06 221.982 102.06C221.734 102.06 221.599 102.166 221.501 102.421L218.038 111.729H217.993L214.537 102.429C214.447 102.173 214.289 102.06 214.041 102.06C213.733 102.06 213.531 102.233 213.531 102.504C213.531 102.586 213.546 102.684 213.598 102.804L217.392 112.646C217.52 112.984 217.693 113.111 218.016 113.111Z" fill="white"/>
</g>
<rect x="198.764" y="88.7563" width="38.5031" height="38.5031" rx="5.40433" stroke="white" stroke-opacity="0.25" stroke-width="1.5"/>
<g clip-path="url(#clip23_6_6088)">
<path d="M259.014 113.006H262.424C264.716 113.006 266.091 111.879 266.091 110.031C266.091 108.529 265.046 107.515 263.544 107.334V107.282C264.701 107.071 265.527 106.042 265.527 104.84C265.527 103.24 264.265 102.166 262.402 102.166H259.014C258.698 102.166 258.503 102.368 258.503 102.699V112.473C258.503 112.803 258.698 113.006 259.014 113.006ZM259.525 106.981V103.075H262.184C263.626 103.075 264.49 103.773 264.49 104.953C264.49 106.23 263.529 106.981 261.884 106.981H259.525ZM259.525 112.097V107.868H262.146C264.017 107.868 265.039 108.626 265.039 109.979C265.039 111.323 264.055 112.097 262.282 112.097H259.525Z" fill="white"/>
</g>
<rect x="242.767" y="88.7563" width="38.5031" height="38.5031" rx="5.40433" stroke="white" stroke-opacity="0.25" stroke-width="1.5"/>
<g clip-path="url(#clip24_6_6088)">
<path d="M302.303 113.111C302.619 113.111 302.814 112.909 302.814 112.578V103.946H302.867L309.095 112.788C309.275 113.044 309.403 113.111 309.673 113.111C310.026 113.111 310.236 112.909 310.236 112.563V102.594C310.236 102.263 310.041 102.06 309.733 102.06C309.418 102.06 309.222 102.263 309.222 102.594V111.218H309.17L302.979 102.406C302.799 102.143 302.656 102.06 302.386 102.06C302.033 102.06 301.8 102.293 301.8 102.654V112.578C301.8 112.909 301.995 113.111 302.303 113.111Z" fill="white"/>
</g>
<rect x="286.77" y="88.7563" width="38.5031" height="38.5031" rx="5.40433" stroke="white" stroke-opacity="0.25" stroke-width="1.5"/>
<g clip-path="url(#clip25_6_6088)">
<path d="M345.285 113.111C345.578 113.111 345.765 112.924 345.765 112.608V104.111H345.81L349.401 112.54C349.529 112.841 349.725 112.976 350.025 112.976C350.326 112.976 350.513 112.841 350.649 112.525L354.24 104.111H354.285V112.608C354.285 112.924 354.465 113.111 354.765 113.111C355.066 113.111 355.246 112.924 355.246 112.608V102.691C355.246 102.308 354.991 102.06 354.608 102.06C354.262 102.06 354.044 102.226 353.886 102.594L350.048 111.654H350.002L346.149 102.594C345.991 102.226 345.788 102.06 345.442 102.06C345.059 102.06 344.804 102.308 344.804 102.691V112.608C344.804 112.924 344.984 113.111 345.285 113.111Z" fill="white"/>
</g>
<rect x="330.773" y="88.7563" width="38.5031" height="38.5031" rx="5.40433" stroke="white" stroke-opacity="0.25" stroke-width="1.5"/>
<rect x="112.766" y="132.759" width="210.5" height="38.5031" rx="5.40433" stroke="white" stroke-opacity="0.25" stroke-width="1.5"/>
<defs>
<clipPath id="clip0_6_6088">
<rect width="40.0031" height="40.0031" rx="6.15433" fill="white"/>
</clipPath>
<clipPath id="clip1_6_6088">
<rect x="44.0031" width="40.0031" height="40.0031" rx="6.15433" fill="white"/>
</clipPath>
<clipPath id="clip2_6_6088">
<rect x="88.0063" width="40.0031" height="40.0031" rx="6.15433" fill="white"/>
</clipPath>
<clipPath id="clip3_6_6088">
<rect x="132.009" width="40.0031" height="40.0031" rx="6.15433" fill="white"/>
</clipPath>
<clipPath id="clip4_6_6088">
<rect x="176.013" width="40.0031" height="40.0031" rx="6.15433" fill="white"/>
</clipPath>
<clipPath id="clip5_6_6088">
<rect x="220.016" width="40.0031" height="40.0031" rx="6.15433" fill="white"/>
</clipPath>
<clipPath id="clip6_6_6088">
<rect x="264.019" width="40.0031" height="40.0031" rx="6.15433" fill="white"/>
</clipPath>
<clipPath id="clip7_6_6088">
<rect x="308.022" width="40.0031" height="40.0031" rx="6.15433" fill="white"/>
</clipPath>
<clipPath id="clip8_6_6088">
<rect x="352.025" width="40.0031" height="40.0031" rx="6.15433" fill="white"/>
</clipPath>
<clipPath id="clip9_6_6088">
<rect x="396.028" width="40.0031" height="40.0031" rx="6.15433" fill="white"/>
</clipPath>
<clipPath id="clip10_6_6088">
<rect x="22.0016" y="44.0031" width="40.0031" height="40.0031" rx="6.15433" fill="white"/>
</clipPath>
<clipPath id="clip11_6_6088">
<rect x="66.0047" y="44.0031" width="40.0031" height="40.0031" rx="6.15433" fill="white"/>
</clipPath>
<clipPath id="clip12_6_6088">
<rect x="110.008" y="44.0031" width="40.0031" height="40.0031" rx="6.15433" fill="white"/>
</clipPath>
<clipPath id="clip13_6_6088">
<rect x="155.55" y="45.5417" width="36.926" height="36.926" rx="6.15433" fill="white"/>
</clipPath>
<clipPath id="clip14_6_6088">
<rect x="198.014" y="44.0031" width="40.0031" height="40.0031" rx="6.15433" fill="white"/>
</clipPath>
<clipPath id="clip15_6_6088">
<rect x="242.017" y="44.0031" width="40.0031" height="40.0031" rx="6.15433" fill="white"/>
</clipPath>
<clipPath id="clip16_6_6088">
<rect x="286.02" y="44.0031" width="40.0031" height="40.0031" rx="6.15433" fill="white"/>
</clipPath>
<clipPath id="clip17_6_6088">
<rect x="330.023" y="44.0031" width="40.0031" height="40.0031" rx="6.15433" fill="white"/>
</clipPath>
<clipPath id="clip18_6_6088">
<rect x="374.027" y="44.0031" width="40.0031" height="40.0031" rx="6.15433" fill="white"/>
</clipPath>
<clipPath id="clip19_6_6088">
<rect x="66.0047" y="88.0063" width="40.0031" height="40.0031" rx="6.15433" fill="white"/>
</clipPath>
<clipPath id="clip20_6_6088">
<rect x="110.008" y="88.0063" width="40.0031" height="40.0031" rx="6.15433" fill="white"/>
</clipPath>
<clipPath id="clip21_6_6088">
<rect x="154.011" y="88.0063" width="40.0031" height="40.0031" rx="6.15433" fill="white"/>
</clipPath>
<clipPath id="clip22_6_6088">
<rect x="198.014" y="88.0063" width="40.0031" height="40.0031" rx="6.15433" fill="white"/>
</clipPath>
<clipPath id="clip23_6_6088">
<rect x="242.017" y="88.0063" width="40.0031" height="40.0031" rx="6.15433" fill="white"/>
</clipPath>
<clipPath id="clip24_6_6088">
<rect x="286.02" y="88.0063" width="40.0031" height="40.0031" rx="6.15433" fill="white"/>
</clipPath>
<clipPath id="clip25_6_6088">
<rect x="330.023" y="88.0063" width="40.0031" height="40.0031" rx="6.15433" fill="white"/>
</clipPath>
</defs>
</svg>
